<svg width="40" height="40" viewBox="0 0 40 40" fill="none" xmlns="http://www.w3.org/2000/svg">
<g clip-path="url(#clip0_2073_2306)">
<path d="M33.9873 2.34398C32.0485 2.34398 30.4713 3.92116 30.4713 5.85991C30.4713 6.40116 30.6044 6.9078 30.8237 7.36624L29.1441 9.04584C26.7657 3.72367 21.4316 0 15.2357 0C6.83499 0 0 6.83499 0 15.2357C0 23.6364 6.83499 30.4714 15.2357 30.4714C18.1546 30.4714 20.8748 29.6317 23.1946 28.2023L24.9484 30.2956C26.5437 28.8022 28.8005 26.5456 30.2951 24.9492L28.2015 23.1958C29.6315 20.8757 30.4713 18.155 30.4713 15.2356C30.4713 13.9492 30.2935 12.7064 29.992 11.5124L32.481 9.02334C32.9395 9.24264 33.4461 9.37569 33.9874 9.37569C35.9261 9.37569 37.5033 7.7985 37.5033 5.85975C37.5031 3.92109 35.926 2.34398 33.9873 2.34398ZM15.2357 28.1274C8.12827 28.1274 2.34398 22.3442 2.34398 15.2357C2.34398 8.12717 8.12827 2.34398 15.2357 2.34398C20.801 2.34398 25.5409 5.89655 27.342 10.8479L23.7739 14.4161C23.3153 14.1968 22.8087 14.0637 22.2675 14.0637C21.7262 14.0637 21.2196 14.1968 20.7611 14.4161L18.3991 12.054C18.6184 11.5957 18.7514 11.089 18.7514 10.5477C18.7514 8.60897 17.1743 7.03178 15.2355 7.03178C13.2968 7.03178 11.7196 8.60897 11.7196 10.5477C11.7196 11.089 11.8526 11.5956 12.0719 12.054L9.7099 14.4161C9.25154 14.1968 8.74483 14.0637 8.20358 14.0637C6.26483 14.0637 4.68765 15.6409 4.68765 17.5797C4.68765 19.5184 6.26483 21.0956 8.20358 21.0956C10.1423 21.0956 11.7195 19.5184 11.7195 17.5797C11.7195 17.0384 11.5865 16.5318 11.3672 16.0733L13.7292 13.7113C14.1876 13.9306 14.6943 14.0636 15.2355 14.0636C15.7768 14.0636 16.2834 13.9306 16.7418 13.7113L19.1039 16.0733C18.8846 16.5317 18.7515 17.0384 18.7515 17.5797C18.7515 19.5184 20.3287 21.0956 22.2675 21.0956C24.2062 21.0956 25.7834 19.5184 25.7834 17.5797C25.7834 17.0384 25.6503 16.5318 25.431 16.0733L27.9976 13.5068C28.0742 14.0739 28.1274 14.6479 28.1274 15.2357C28.1274 22.3442 22.3431 28.1274 15.2357 28.1274Z" fill="#D4D4D8"/>
<path d="M39.9815 34.8875C39.8716 33.6366 39.2787 32.5035 38.3174 31.6966L32.0924 26.4546C30.5128 28.1497 28.1477 30.5147 26.4539 32.0927L31.6976 38.3256C31.8647 38.5247 32.0706 38.7318 32.2767 38.9047C33.1557 39.6407 34.227 40 35.2936 40C36.6372 40 37.9741 39.4289 38.9011 38.3199C39.7091 37.3575 40.0913 36.1386 39.9815 34.8875Z" fill="#D4D4D8"/>
</g>
<defs>
<clipPath id="clip0_2073_2306">
<rect width="40" height="40" fill="white"/>
</clipPath>
</defs>
</svg>
