<svg width="40" height="40" viewBox="0 0 40 40" fill="none" xmlns="http://www.w3.org/2000/svg">
<path d="M1.25 36.25H38.75V38.75H1.25V36.25Z" fill="#D4D4D8"/>
<path d="M6.875 15C6.37772 15 5.90081 15.1975 5.54917 15.5492C5.19754 15.9008 5 16.3777 5 16.875V33.75H12.5V16.875C12.5 16.3777 12.3025 15.9008 11.9508 15.5492C11.5992 15.1975 11.1223 15 10.625 15H6.875Z" fill="#D4D4D8"/>
<path d="M18.125 25C17.6277 25 17.1508 25.1975 16.7992 25.5492C16.4475 25.9008 16.25 26.3777 16.25 26.875V33.75H23.75V26.875C23.75 26.3777 23.5525 25.9008 23.2008 25.5492C22.8492 25.1975 22.3723 25 21.875 25H18.125Z" fill="#D4D4D8"/>
<path d="M29.375 28.75C28.8777 28.75 28.4008 28.9475 28.0492 29.2992C27.6975 29.6508 27.5 30.1277 27.5 30.625V33.75H35V30.625C35 30.1277 34.8025 29.6508 34.4508 29.2992C34.0992 28.9475 33.6223 28.75 33.125 28.75H29.375Z" fill="#D4D4D8"/>
<path d="M16.625 17.6C17.0405 18.9827 17.7959 20.2391 18.8222 21.2545C19.8485 22.2699 21.113 23.0118 22.5 23.4125C23.3143 23.6374 24.1553 23.751 25 23.75C27.3207 23.75 29.5463 22.8281 31.1872 21.1872C32.8281 19.5463 33.75 17.3207 33.75 15C33.75 14.6685 33.6183 14.3506 33.3839 14.1161C33.1495 13.8817 32.8315 13.75 32.5 13.75H28.125C27.6277 13.75 27.1508 13.5525 26.7992 13.2008C26.4476 12.8492 26.25 12.3723 26.25 11.875V7.50002C26.25 7.1685 26.1183 6.85055 25.8839 6.61613C25.6495 6.38171 25.3315 6.25002 25 6.25002C23.6949 6.24744 22.4058 6.53684 21.227 7.09702C20.0482 7.65721 19.0097 8.47398 18.1875 9.48752C17.2869 10.6107 16.6738 11.9366 16.4015 13.3503C16.1293 14.7639 16.206 16.2227 16.625 17.6Z" fill="#D4D4D8"/>
<path d="M30 11.25H37.5C37.8315 11.25 38.1495 11.1183 38.3839 10.8839C38.6183 10.6495 38.75 10.3315 38.75 10C38.75 7.67936 37.8281 5.45376 36.1872 3.81282C34.5462 2.17187 32.3206 1.25 30 1.25C29.6685 1.25 29.3505 1.3817 29.1161 1.61612C28.8817 1.85054 28.75 2.16848 28.75 2.5V9.3875C28.75 10.6875 29.3125 11.25 30 11.25Z" fill="#D4D4D8"/>
<path d="M1.25 1.25H18.75V3.75H1.25V1.25Z" fill="#D4D4D8"/>
<path d="M1.25 6.25H12.5V8.75H1.25V6.25Z" fill="#D4D4D8"/>
</svg>
