<svg width="40" height="40" viewBox="0 0 40 40" fill="none" xmlns="http://www.w3.org/2000/svg">
<path d="M24.5 28.3333H30.5C31.6046 28.3333 32.5 27.4379 32.5 26.3333V20.3333C32.5 19.2287 31.6046 18.3333 30.5 18.3333H27.5L29.3861 14.5611C30.051 13.2313 29.084 11.6666 27.5973 11.6666H27.0694C26.3119 11.6666 25.6193 12.0946 25.2805 12.7722L22.7111 17.911C22.5723 18.1887 22.5 18.495 22.5 18.8054V26.3333C22.5 27.4379 23.3954 28.3333 24.5 28.3333Z" fill="#D3D0C9"/>
<path d="M9.5 28.3333H15.5C16.6046 28.3333 17.5 27.4379 17.5 26.3333V20.3333C17.5 19.2287 16.6046 18.3333 15.5 18.3333H12.5L14.3861 14.5611C15.051 13.2313 14.084 11.6666 12.5973 11.6666H12.0694C11.3119 11.6666 10.6193 12.0946 10.2805 12.7722L7.71115 17.911C7.57229 18.1887 7.5 18.495 7.5 18.8054V26.3333C7.5 27.4379 8.39543 28.3333 9.5 28.3333Z" fill="#D3D0C9"/>
</svg>
