<svg width="327" height="187" viewBox="0 0 327 187" fill="none" xmlns="http://www.w3.org/2000/svg">
<g clip-path="url(#clip0_2073_2133)">
<rect width="327" height="187" rx="8" fill="white"/>
<rect x="-40" y="-67" width="390" height="431" fill="#F4F4F5"/>
<rect x="25" y="-5" width="276" height="57.5" rx="8" fill="white"/>
<path d="M42.497 29.25H40.6356L44.7722 17.7313H46.7927L50.9452 29.25H49.0837L48.0337 26.2112H43.5471L42.497 29.25ZM44.0483 24.7475H47.5246L45.8222 19.8314H45.7427L44.0483 24.7475ZM53.3794 29.3614C52.7589 29.3534 52.2418 28.8523 52.2498 28.2318C52.2418 27.6113 52.7589 27.1022 53.3794 27.1022C53.9919 27.1022 54.501 27.6113 54.509 28.2318C54.501 28.8523 53.9919 29.3534 53.3794 29.3614ZM61.4775 29.25H59.616L63.7526 17.7313H65.7731L69.9256 29.25H68.0641L67.0141 26.2112H62.5275L61.4775 29.25ZM63.0287 24.7475H66.505L64.8026 19.8314H64.7231L63.0287 24.7475ZM75.2236 29.25V20.611H76.8623V22.0269H76.9577C77.3237 21.0644 78.1748 20.4996 79.3124 20.4996C80.4659 20.4996 81.2693 21.0644 81.6352 22.0269H81.7307C82.1364 21.0962 83.0751 20.4996 84.324 20.4996C85.8832 20.4996 86.9889 21.478 86.9968 23.4588V29.25H85.2945V23.6179C85.2945 22.4485 84.5626 21.9633 83.6717 21.9633C82.5819 21.9633 81.9534 22.7111 81.9534 23.7452V29.25H80.267V23.5225C80.267 22.5758 79.6226 21.9633 78.6919 21.9633C77.7373 21.9633 76.9259 22.7588 76.9259 23.9202V29.25H75.2236ZM88.6515 26.8158C88.6435 24.843 90.322 24.3339 91.8812 24.2225C92.4539 24.1907 93.7506 24.1191 94.1483 24.1032L94.1404 23.4111C94.1483 22.4326 93.5437 21.8678 92.3903 21.8678C91.388 21.8678 90.7834 22.3292 90.6084 22.9656H88.9219C89.0731 21.5337 90.4095 20.4996 92.4539 20.4996C93.8301 20.4996 95.8348 21.0008 95.8427 23.5066V29.25H94.1881V28.0727H94.1245C93.7903 28.717 92.9949 29.4409 91.563 29.4409C89.9243 29.4409 88.6435 28.5022 88.6515 26.8158ZM90.3061 26.8317C90.3061 27.659 90.9902 28.0806 91.9448 28.0886C93.329 28.0806 94.1563 27.1579 94.1563 26.1317L94.1483 25.3441C93.7585 25.368 92.5255 25.4555 92.1198 25.4794C91.0061 25.5589 90.3061 25.9805 90.3061 26.8317ZM101.523 32.6706C99.3429 32.6706 97.903 31.7081 97.7519 30.0932H99.4861C99.6531 30.9126 100.417 31.3103 101.538 31.3024C102.891 31.3103 103.742 30.7217 103.75 29.3773V27.6749H103.639C103.336 28.2318 102.716 29.1227 101.125 29.1227C99.0883 29.1227 97.5132 27.6033 97.5132 24.843C97.5132 22.0826 99.0645 20.4996 101.141 20.4996C102.748 20.4996 103.336 21.4701 103.654 22.011H103.766V20.611H105.42V29.4409C105.428 31.6603 103.75 32.6706 101.523 32.6706ZM99.2474 24.8748C99.2395 26.5692 100.019 27.7147 101.507 27.7227C102.954 27.7147 103.766 26.6567 103.766 24.8748C103.766 23.1247 102.97 21.9394 101.507 21.9474C100.003 21.9394 99.2395 23.2202 99.2474 24.8748ZM107.489 29.25V20.611H109.191V29.25H107.489ZM107.266 18.2722C107.274 17.7154 107.759 17.2699 108.348 17.2699C108.929 17.2699 109.414 17.7154 109.414 18.2722C109.414 18.8291 108.929 19.2825 108.348 19.2745C107.759 19.2825 107.274 18.8291 107.266 18.2722ZM114.919 29.425C112.397 29.425 110.87 27.5715 110.877 24.9703C110.87 22.3372 112.453 20.4996 114.887 20.4996C116.86 20.4996 118.284 21.661 118.466 23.4111H116.812C116.637 22.5997 115.993 21.9235 114.919 21.9156C113.519 21.9235 112.58 23.0849 112.58 24.9225C112.58 26.8158 113.495 27.9852 114.919 27.9772C115.881 27.9852 116.597 27.4442 116.812 26.5135H118.466C118.284 28.192 116.955 29.425 114.919 29.425ZM119.676 26.8158C119.668 24.843 121.346 24.3339 122.905 24.2225C123.478 24.1907 124.775 24.1191 125.172 24.1032L125.165 23.4111C125.172 22.4326 124.568 21.8678 123.414 21.8678C122.412 21.8678 121.808 22.3292 121.633 22.9656H119.946C120.097 21.5337 121.434 20.4996 123.478 20.4996C124.854 20.4996 126.859 21.0008 126.867 23.5066V29.25H125.212V28.0727H125.149C124.815 28.717 124.019 29.4409 122.587 29.4409C120.948 29.4409 119.668 28.5022 119.676 26.8158ZM121.33 26.8317C121.33 27.659 122.014 28.0806 122.969 28.0886C124.353 28.0806 125.18 27.1579 125.18 26.1317L125.172 25.3441C124.783 25.368 123.55 25.4555 123.144 25.4794C122.03 25.5589 121.33 25.9805 121.33 26.8317ZM130.622 17.7313V29.25H128.919V17.7313H130.622ZM140.788 20.611V21.9633H138.927V29.25H137.224V21.9633H135.888V20.611H137.224V19.6086C137.232 18.0654 138.219 17.1903 139.802 17.1903C140.207 17.1903 140.629 17.2381 140.963 17.3017V18.7177C140.645 18.67 140.398 18.6541 140.247 18.6541C139.348 18.6541 138.927 19.02 138.927 19.8632V20.611H140.788ZM145.64 29.425C143.19 29.425 141.591 27.6431 141.599 24.9703C141.591 22.2815 143.19 20.4996 145.64 20.4996C148.075 20.4996 149.666 22.2815 149.666 24.9703C149.666 27.6431 148.075 29.425 145.64 29.425ZM143.302 24.9703C143.302 26.6169 144.057 28.009 145.64 28.009C147.2 28.009 147.947 26.6169 147.947 24.9703C147.947 23.3156 147.2 21.9076 145.64 21.8997C144.057 21.9076 143.302 23.3156 143.302 24.9703ZM151.336 29.25V20.611H152.975V21.9792H153.07C153.389 21.0564 154.256 20.4757 155.266 20.4837C155.473 20.4757 155.807 20.4996 155.982 20.5155V22.1383C155.839 22.1065 155.441 22.0349 155.091 22.0428C153.914 22.0349 153.039 22.8542 153.039 23.9838V29.25H151.336ZM160.691 29.425C158.146 29.425 156.578 27.667 156.586 24.9862C156.578 22.3292 158.169 20.4996 160.58 20.4996C162.545 20.4996 164.414 21.7167 164.414 24.843V25.4476H158.273C158.321 27.0942 159.291 28.0249 160.707 28.0249C161.67 28.0249 162.298 27.6113 162.584 27.0863H164.303C163.921 28.4863 162.592 29.425 160.691 29.425ZM158.281 24.1748H162.744C162.744 22.8622 161.892 21.8917 160.596 21.8997C159.235 21.8917 158.352 22.9577 158.281 24.1748ZM170.953 22.9656C170.794 22.2815 170.253 21.836 169.314 21.836C168.344 21.836 167.652 22.3372 167.66 22.9974C167.652 23.5066 168.057 23.8725 169.012 24.0952L170.38 24.4134C171.971 24.7714 172.743 25.5271 172.751 26.7522C172.743 28.3113 171.422 29.425 169.219 29.425C167.143 29.425 165.918 28.5022 165.703 26.8953H167.437C167.588 27.6749 168.177 28.0647 169.203 28.0568C170.301 28.0647 171.009 27.6033 171.017 26.8794C171.009 26.3226 170.595 25.9646 169.68 25.7498L168.328 25.4635C166.769 25.1214 165.957 24.2861 165.957 23.0929C165.957 21.5576 167.294 20.4996 169.298 20.4996C171.223 20.4996 172.425 21.478 172.592 22.9656H170.953ZM178.447 20.611V21.9633H176.681V26.7044C176.689 27.6829 177.166 27.8579 177.715 27.8658C177.961 27.8658 178.335 27.842 178.574 27.8181V29.2977C178.343 29.3295 177.977 29.3614 177.508 29.3614C176.179 29.3614 174.978 28.6295 174.994 27.0544V21.9633H173.721V20.611H174.994V18.5427H176.681V20.611H178.447Z" fill="#1E293B"/>
<rect x="15.4167" y="68.8038" width="276" height="57.5" rx="8" transform="rotate(-6.1818 15.4167 68.8038)" fill="#0088FF"/>
<path d="M35.5196 101.077L34.2792 89.6251L38.4708 89.1711C40.9146 88.9064 42.2343 90.0837 42.4185 91.7841C42.5735 93.2155 41.7736 94.0303 40.7509 94.4131L40.7629 94.5238C41.9086 94.4638 43.2503 95.3266 43.4422 97.0982C43.6323 98.8539 42.5741 100.313 39.901 100.602L35.5196 101.077ZM37.0985 99.4016L39.5818 99.1326C41.2259 98.9465 41.8123 98.1549 41.7095 97.2058C41.5904 96.1065 40.6254 95.3229 39.2493 95.4719L36.7027 95.7478L37.0985 99.4016ZM36.5554 94.3875L38.8647 94.1373C40.0185 94.0044 40.8447 93.2107 40.7256 92.1114C40.6228 91.1624 39.8893 90.5217 38.5211 90.6699L36.1802 90.9235L36.5554 94.3875ZM46.6195 99.9866C46.0018 100.045 45.4338 99.6029 45.3749 98.9852C45.3001 98.3692 45.7594 97.8073 46.3762 97.7405C46.9852 97.6746 47.5462 98.1259 47.6209 98.7419C47.6798 99.3597 47.2276 99.9127 46.6195 99.9866ZM54.6585 99.0038L52.8079 99.2043L55.68 87.3071L57.6888 87.0895L63.0575 98.0941L61.2069 98.2946L59.8357 95.3865L55.3753 95.8697L54.6585 99.0038ZM55.7159 94.3605L59.172 93.9862L56.9501 89.2819L56.8711 89.2905L55.7159 94.3605ZM68.3247 97.5236L67.3944 88.9348L69.0236 88.7583L69.1761 90.1661L69.271 90.1558C69.5311 89.1595 70.3165 88.5063 71.4475 88.3838C72.5942 88.2596 73.4538 88.7346 73.9213 89.6521L74.0162 89.6418C74.3193 88.6728 75.1883 87.9786 76.4299 87.8441C77.98 87.6762 79.1847 88.5299 79.4059 90.4983L80.0295 96.2558L78.3371 96.4391L77.7306 90.8398C77.6047 89.6772 76.8248 89.2736 75.939 89.3696C74.8556 89.4869 74.3113 90.298 74.4227 91.3261L75.0154 96.7989L73.3388 96.9805L72.722 91.2863C72.6201 90.3452 71.9135 89.8056 70.9882 89.9058C70.0392 90.0086 69.3182 90.8868 69.4432 92.0415L70.0172 97.3403L68.3247 97.5236ZM81.4124 93.6576C81.1921 91.6971 82.806 91.0102 84.3441 90.7316C84.9101 90.6383 86.1915 90.4275 86.5852 90.3688L86.5028 89.6816C86.4053 88.708 85.7434 88.2116 84.5967 88.3358C83.6002 88.4437 83.0488 88.9675 82.9433 89.6191L81.2667 89.8007C81.2628 88.3608 82.4801 87.1888 84.5126 86.9687C85.8808 86.8205 87.9277 87.1028 88.2055 89.5932L88.824 95.3033L87.179 95.4814L87.0522 94.311L86.9889 94.3178C86.7261 94.9944 86.0132 95.7997 84.5897 95.9539C82.9605 96.1304 81.5861 95.3351 81.4124 93.6576ZM83.0591 93.4952C83.1482 94.3177 83.8738 94.6632 84.8236 94.5683C86.1989 94.4114 86.922 93.4049 86.8115 92.3847L86.7188 91.6026C86.3339 91.6683 85.1174 91.888 84.7167 91.9555C83.618 92.1545 82.9675 92.649 83.0591 93.4952ZM94.8391 98.0924C92.6721 98.3271 91.137 97.5252 90.8128 95.936L92.5369 95.7493C92.7912 96.5459 93.5933 96.8591 94.7076 96.7304C96.0529 96.5927 96.8357 95.9158 96.6989 94.5783L96.5156 92.8859L96.4048 92.8979C96.1643 93.484 95.6433 94.4366 94.0616 94.6079C92.037 94.8272 90.3075 93.4863 90.0102 90.742C89.713 87.9977 91.0847 86.2568 93.1488 86.0332C94.7464 85.8602 95.4361 86.7617 95.8107 87.2652L95.9215 87.2532L95.7707 85.8613L97.4157 85.6831L98.3665 94.4617C98.6134 96.6674 97.0535 97.8525 94.8391 98.0924ZM91.7377 90.5869C91.9123 92.2723 92.8107 93.3272 94.2905 93.1749C95.729 93.0111 96.4217 91.8719 96.2298 90.1003C96.0414 88.3604 95.1229 87.2677 93.6685 87.4332C92.173 87.5872 91.5516 88.9427 91.7377 90.5869ZM100.402 94.0492L99.472 85.4604L101.164 85.2771L102.095 93.8659L100.402 94.0492ZM98.9987 83.1592C98.9466 82.6048 99.3811 82.1096 99.9663 82.0462C100.544 81.9837 101.074 82.3743 101.134 82.9279C101.194 83.4815 100.76 83.9846 100.182 84.0392C99.5978 84.1105 99.0665 83.712 98.9987 83.1592ZM107.808 93.4231C105.301 93.6946 103.583 92.0164 103.31 89.4294C103.019 86.8125 104.395 84.8151 106.815 84.553C108.776 84.3406 110.317 85.3419 110.687 87.0621L109.042 87.2403C108.781 86.4524 108.068 85.8496 106.999 85.9573C105.608 86.116 104.8 87.3717 104.998 89.1986C105.202 91.0809 106.237 92.145 107.652 91.9837C108.61 91.888 109.263 91.2731 109.377 90.3247L111.022 90.1465C111.02 91.8349 109.832 93.2038 107.808 93.4231ZM112.256 90.3168C112.036 88.3563 113.65 87.6694 115.188 87.3908C115.754 87.2975 117.035 87.0867 117.429 87.028L117.347 86.3408C117.249 85.3672 116.587 84.8708 115.44 84.995C114.444 85.1029 113.893 85.6268 113.787 86.2783L112.11 86.4599C112.107 85.0201 113.324 83.848 115.356 83.6279C116.725 83.4797 118.772 83.7621 119.049 86.2524L119.668 91.9625L118.023 92.1407L117.896 90.9702L117.833 90.977C117.57 91.6536 116.857 92.459 115.433 92.6131C113.804 92.7896 112.43 91.9943 112.256 90.3168ZM113.903 90.1544C113.992 90.9769 114.718 91.3224 115.667 91.2276C117.043 91.0706 117.766 90.0641 117.655 89.0439L117.563 88.2618C117.178 88.3275 115.961 88.5473 115.56 88.6147C114.462 88.8137 113.811 89.3082 113.903 90.1544ZM122.16 80.1064L123.401 91.5582L121.708 91.7415L120.468 80.2897L122.16 80.1064ZM132.578 81.8746L132.723 83.2191L130.873 83.4195L131.657 90.6639L129.965 90.8472L129.18 83.6028L127.851 83.7467L127.706 82.4023L129.035 82.2584L128.927 81.2619C128.768 79.7267 129.655 78.7506 131.229 78.5801C131.632 78.5364 132.056 78.5385 132.395 78.5658L132.548 79.9735C132.226 79.9603 131.979 79.971 131.829 79.9873C130.935 80.0841 130.556 80.4933 130.646 81.3316L130.727 82.0751L132.578 81.8746ZM138.351 90.1149C135.915 90.3787 134.134 88.7793 133.854 86.1212C133.556 83.4489 134.954 81.5052 137.39 81.2413C139.81 80.9792 141.584 82.5794 141.873 85.2526C142.161 87.9099 140.771 89.8527 138.351 90.1149ZM135.546 85.9379C135.723 87.575 136.625 88.8776 138.199 88.7071C139.749 88.5392 140.342 87.0747 140.165 85.4376C139.987 83.7926 139.092 82.4733 137.541 82.6333C135.968 82.8116 135.368 84.2929 135.546 85.9379ZM143.995 89.3275L143.064 80.7387L144.694 80.5623L144.841 81.9226L144.936 81.9123C145.153 80.9606 145.952 80.2899 146.958 80.189C147.162 80.1588 147.497 80.1466 147.673 80.1436L147.848 81.7569C147.702 81.7407 147.299 81.7124 146.952 81.758C145.78 81.8768 144.998 82.7857 145.12 83.9087L145.687 89.1442L143.995 89.3275ZM153.314 88.4942C150.783 88.7683 149.036 87.1892 148.755 84.5231C148.461 81.8825 149.846 79.8922 152.242 79.6326C154.196 79.421 156.185 80.4298 156.522 83.5379L156.587 84.1389L150.482 84.8002C150.706 86.4322 151.771 87.253 153.179 87.1005C154.136 86.9969 154.716 86.5179 154.945 85.9651L156.653 85.7801C156.424 87.2131 155.204 88.2894 153.314 88.4942ZM150.352 83.534L154.789 83.0534C154.648 81.7485 153.697 80.8753 152.409 81.0228C151.056 81.1614 150.293 82.3163 150.352 83.534ZM162.821 80.9673C162.589 80.3043 162.003 79.9196 161.07 80.0207C160.105 80.1252 159.471 80.698 159.55 81.3536C159.597 81.8606 160.04 82.1807 161.013 82.2993L162.407 82.4683C164.028 82.6529 164.876 83.3211 165.016 84.5382C165.176 86.0892 163.983 87.3386 161.792 87.5759C159.728 87.7994 158.411 87.014 158.024 85.4395L159.748 85.2528C159.983 86.0116 160.61 86.3357 161.629 86.2173C162.721 86.107 163.376 85.572 163.306 84.8515C163.238 84.2987 162.788 83.9874 161.855 83.8724L160.48 83.7333C158.893 83.5611 157.996 82.8181 157.868 81.6318C157.703 80.1054 158.917 78.9096 160.91 78.6938C162.824 78.4865 164.124 79.3299 164.45 80.7908L162.821 80.9673ZM170.017 77.8194L170.163 79.1639L168.407 79.354L168.918 84.0676C169.031 85.0395 169.524 85.1621 170.071 85.1109C170.316 85.0843 170.685 85.0204 170.92 84.9709L171.079 86.4419C170.853 86.4984 170.493 86.5695 170.026 86.62C168.705 86.7631 167.432 86.1648 167.279 84.5972L166.73 79.5356L165.465 79.6727L165.319 78.3282L166.585 78.1912L166.362 76.1349L168.039 75.9533L168.261 78.0096L170.017 77.8194Z" fill="white"/>
<rect x="245.524" y="57.3753" width="30.6667" height="30.6667" rx="15.3333" transform="rotate(-6.1818 245.524 57.3753)" fill="white" fill-opacity="0.1"/>
<path d="M268.255 65.5166L260.468 75.1962L256.068 71.6564" stroke="white" stroke-width="1.91667" stroke-linecap="round" stroke-linejoin="round"/>
<rect x="25" y="133" width="276" height="57.5" rx="8" fill="white"/>
<path d="M49.3065 159.486C49.028 157.998 47.795 157.171 46.3313 157.179C44.3426 157.171 42.8709 158.698 42.863 161.491C42.8709 164.299 44.3505 165.81 46.3313 165.802C47.7791 165.81 49.0042 164.999 49.3065 163.527L51.0724 163.543C50.7065 165.818 48.853 167.409 46.3154 167.409C43.3164 167.409 41.1288 165.174 41.1288 161.491C41.1288 157.808 43.3323 155.572 46.3154 155.572C48.7496 155.572 50.6827 157.012 51.0724 159.486H49.3065ZM53.9362 167.361C53.3157 167.353 52.7987 166.852 52.8066 166.232C52.7987 165.611 53.3157 165.102 53.9362 165.102C54.5487 165.102 55.0579 165.611 55.0658 166.232C55.0579 166.852 54.5487 167.353 53.9362 167.361ZM64.8822 167.25V158.611H66.5209V160.027H66.6164C66.9823 159.064 67.8335 158.5 68.971 158.5C70.1245 158.5 70.9279 159.064 71.2938 160.027H71.3893C71.795 159.096 72.7337 158.5 73.9826 158.5C75.5418 158.5 76.6475 159.478 76.6555 161.459V167.25H74.9531V161.618C74.9531 160.449 74.2213 159.963 73.3303 159.963C72.2405 159.963 71.612 160.711 71.612 161.745V167.25H69.9256V161.522C69.9256 160.576 69.2812 159.963 68.3505 159.963C67.3959 159.963 66.5845 160.759 66.5845 161.92V167.25H64.8822ZM78.3101 164.816C78.3021 162.843 79.9806 162.334 81.5398 162.222C82.1125 162.191 83.4092 162.119 83.8069 162.103L83.799 161.411C83.8069 160.433 83.2023 159.868 82.0489 159.868C81.0466 159.868 80.442 160.329 80.267 160.966H78.5805C78.7317 159.534 80.0681 158.5 82.1125 158.5C83.4887 158.5 85.4934 159.001 85.5013 161.507V167.25H83.8467V166.073H83.7831C83.449 166.717 82.6535 167.441 81.2216 167.441C79.5829 167.441 78.3021 166.502 78.3101 164.816ZM79.9647 164.832C79.9647 165.659 80.6488 166.081 81.6034 166.089C82.9876 166.081 83.8149 165.158 83.8149 164.132L83.8069 163.344C83.4171 163.368 82.1841 163.456 81.7784 163.479C80.6647 163.559 79.9647 163.981 79.9647 164.832ZM91.1811 170.671C89.0015 170.671 87.5616 169.708 87.4105 168.093H89.1447C89.3117 168.913 90.0754 169.31 91.197 169.302C92.5494 169.31 93.4006 168.722 93.4085 167.377V165.675H93.2971C92.9949 166.232 92.3744 167.123 90.7834 167.123C88.7469 167.123 87.1719 165.603 87.1719 162.843C87.1719 160.083 88.7231 158.5 90.7993 158.5C92.4062 158.5 92.9949 159.47 93.313 160.011H93.4244V158.611H95.079V167.441C95.087 169.66 93.4085 170.671 91.1811 170.671ZM88.906 162.875C88.8981 164.569 89.6777 165.715 91.1652 165.723C92.613 165.715 93.4244 164.657 93.4244 162.875C93.4244 161.125 92.6289 159.939 91.1652 159.947C89.6617 159.939 88.8981 161.22 88.906 162.875ZM97.1473 167.25V158.611H98.8497V167.25H97.1473ZM96.9246 156.272C96.9325 155.715 97.4178 155.27 98.0064 155.27C98.5872 155.27 99.0724 155.715 99.0724 156.272C99.0724 156.829 98.5872 157.282 98.0064 157.275C97.4178 157.282 96.9325 156.829 96.9246 156.272ZM104.577 167.425C102.055 167.425 100.528 165.572 100.536 162.97C100.528 160.337 102.111 158.5 104.545 158.5C106.518 158.5 107.942 159.661 108.125 161.411H106.47C106.295 160.6 105.651 159.924 104.577 159.916C103.177 159.924 102.238 161.085 102.238 162.923C102.238 164.816 103.153 165.985 104.577 165.977C105.54 165.985 106.256 165.444 106.47 164.514H108.125C107.942 166.192 106.614 167.425 104.577 167.425ZM109.334 164.816C109.326 162.843 111.005 162.334 112.564 162.222C113.137 162.191 114.433 162.119 114.831 162.103L114.823 161.411C114.831 160.433 114.227 159.868 113.073 159.868C112.071 159.868 111.466 160.329 111.291 160.966H109.605C109.756 159.534 111.092 158.5 113.137 158.5C114.513 158.5 116.518 159.001 116.525 161.507V167.25H114.871V166.073H114.807C114.473 166.717 113.678 167.441 112.246 167.441C110.607 167.441 109.326 166.502 109.334 164.816ZM110.989 164.832C110.989 165.659 111.673 166.081 112.628 166.089C114.012 166.081 114.839 165.158 114.839 164.132L114.831 163.344C114.441 163.368 113.208 163.456 112.803 163.479C111.689 163.559 110.989 163.981 110.989 164.832ZM120.28 155.731V167.25H118.578V155.731H120.28ZM130.447 158.611V159.963H128.585V167.25H126.883V159.963H125.546V158.611H126.883V157.609C126.891 156.065 127.877 155.19 129.46 155.19C129.866 155.19 130.287 155.238 130.622 155.302V156.718C130.303 156.67 130.057 156.654 129.906 156.654C129.007 156.654 128.585 157.02 128.585 157.863V158.611H130.447ZM135.299 167.425C132.849 167.425 131.25 165.643 131.258 162.97C131.25 160.281 132.849 158.5 135.299 158.5C137.733 158.5 139.324 160.281 139.324 162.97C139.324 165.643 137.733 167.425 135.299 167.425ZM132.96 162.97C132.96 164.617 133.716 166.009 135.299 166.009C136.858 166.009 137.606 164.617 137.606 162.97C137.606 161.316 136.858 159.908 135.299 159.9C133.716 159.908 132.96 161.316 132.96 162.97ZM140.995 167.25V158.611H142.634V159.979H142.729C143.047 159.056 143.914 158.476 144.925 158.484C145.131 158.476 145.465 158.5 145.64 158.516V160.138C145.497 160.106 145.1 160.035 144.75 160.043C143.572 160.035 142.697 160.854 142.697 161.984V167.25H140.995ZM150.35 167.425C147.804 167.425 146.237 165.667 146.245 162.986C146.237 160.329 147.828 158.5 150.238 158.5C152.203 158.5 154.073 159.717 154.073 162.843V163.448H147.931C147.979 165.094 148.95 166.025 150.366 166.025C151.328 166.025 151.957 165.611 152.243 165.086H153.961C153.579 166.486 152.251 167.425 150.35 167.425ZM147.939 162.175H152.402C152.402 160.862 151.551 159.892 150.254 159.9C148.894 159.892 148.011 160.958 147.939 162.175ZM160.612 160.966C160.453 160.281 159.912 159.836 158.973 159.836C158.002 159.836 157.31 160.337 157.318 160.997C157.31 161.507 157.716 161.872 158.671 162.095L160.039 162.413C161.63 162.771 162.401 163.527 162.409 164.752C162.401 166.311 161.081 167.425 158.877 167.425C156.801 167.425 155.576 166.502 155.361 164.895H157.096C157.247 165.675 157.835 166.065 158.862 166.057C159.959 166.065 160.667 165.603 160.675 164.879C160.667 164.323 160.254 163.965 159.339 163.75L157.987 163.463C156.427 163.121 155.616 162.286 155.616 161.093C155.616 159.558 156.952 158.5 158.957 158.5C160.882 158.5 162.083 159.478 162.25 160.966H160.612ZM168.105 158.611V159.963H166.339V164.704C166.347 165.683 166.824 165.858 167.373 165.866C167.62 165.866 167.994 165.842 168.232 165.818V167.298C168.002 167.33 167.636 167.361 167.166 167.361C165.838 167.361 164.637 166.63 164.653 165.054V159.963H163.38V158.611H164.653V156.543H166.339V158.611H168.105Z" fill="#1E293B"/>
</g>
<defs>
<clipPath id="clip0_2073_2133">
<rect width="327" height="187" rx="8" fill="white"/>
</clipPath>
</defs>
</svg>
