<svg width="111" height="30" viewBox="0 0 111 30" fill="none" xmlns="http://www.w3.org/2000/svg">
<path d="M7.69702 19.5841H5.3219V17.25H12.6466V19.5841H10.2715V30H7.69702V19.5841Z" fill="#64748B"/>
<path d="M23.7933 19.3867V22.9634H24.6746C26.2309 22.9634 26.9935 22.1917 26.9025 20.961C26.8197 19.8452 26.0883 19.3867 24.6912 19.3867H23.7933ZM24.107 24.9H23.7933V29.7041H21.4153V17.2498H24.6414C27.1858 17.2498 29.1484 18.2482 29.2147 20.977C29.258 22.7626 28.0505 23.9653 26.5705 24.5327L30.5928 29.7041H27.8627L24.107 24.9Z" fill="#64748B"/>
<path d="M39.3615 17.2498H41.7394V29.7041H39.3615V17.2498Z" fill="#64748B"/>
<path d="M52.8862 19.3867V23.1766H54.0668C55.364 23.1766 56.2455 22.4585 56.2455 21.2733C56.2286 20.1379 55.6136 19.3867 54.0668 19.3867H52.8862ZM52.8862 25.2802V29.7041H50.5082V17.2498H53.9008C56.5447 17.2498 58.5903 18.1682 58.607 21.2733C58.5903 24.0779 56.179 25.2802 53.8341 25.2802H52.8862Z" fill="#64748B"/>
<path d="M69.7537 17.2498V27.5507H73.8979V29.7041H67.3757V17.2498H69.7537Z" fill="#64748B"/>
<path d="M82.6665 17.2498H89.4513V19.3534H85.0445V22.2748H88.5614V24.2283H85.0445V27.6005H89.5847V29.7041H82.6665V17.2498Z" fill="#64748B"/>
<path d="M100.729 19.5841H98.3534V17.25H105.678V19.5841H103.303V30H100.729V19.5841Z" fill="#64748B"/>
<path d="M15.9658 1.5062V0.743805C15.9658 0.333122 16.2246 0 16.5436 0H39.4783C39.7973 0 40.0559 0.333122 40.0559 0.743805V1.5062C40.0559 1.91688 39.7973 2.25 39.4783 2.25H16.5436C16.2246 2.25 15.9658 1.91688 15.9658 1.5062Z" fill="#64748B"/>
<path d="M43.6367 1.5062V0.743805C43.6367 0.333122 43.8955 0 44.2145 0H67.1492C67.4682 0 67.7268 0.333122 67.7268 0.743805V1.5062C67.7268 1.91688 67.4682 2.25 67.1492 2.25H44.2145C43.8955 2.25 43.6367 1.91688 43.6367 1.5062Z" fill="#64748B"/>
<path d="M70.9442 1.5062V0.743805C70.9442 0.333122 71.2029 0 71.522 0H94.4567C94.7757 0 95.0342 0.333122 95.0342 0.743805V1.5062C95.0342 1.91688 94.7757 2.25 94.4567 2.25H71.522C71.2029 2.25 70.9442 1.91688 70.9442 1.5062Z" fill="#64748B"/>
</svg>
