<svg width="295" height="154" viewBox="0 0 295 154" fill="none" xmlns="http://www.w3.org/2000/svg">
<g clip-path="url(#clip0_2073_2356)">
<rect width="295" height="154" rx="12" fill="#0088FF"/>
<rect opacity="0.2" x="-15" y="-153" width="161" height="241" rx="12" fill="#006DCC"/>
<path d="M64.8594 64.9062C64.8398 69.4961 68.082 73.7734 73.2969 75.4922L71.3047 78.4219C67.4766 77.0742 64.6055 74.3398 63.082 70.8828C61.5586 74.8086 58.5898 77.8945 54.5078 79.3984L52.5156 76.4297C57.9844 74.4961 61.1484 69.8281 61.1875 64.5938V61.1562H64.8594V64.9062ZM57.2422 87.7578C57.2422 83.6562 61.7148 81.2539 69 81.2734C76.1875 81.2539 80.6016 83.6562 80.6016 87.7578C80.6016 91.8984 76.1875 94.2617 69 94.2422C61.7148 94.2617 57.2422 91.8984 57.2422 87.7578ZM60.9531 87.7578C60.9336 90.0625 63.9414 91.3125 69 91.3516C74.0195 91.3125 76.9883 90.0625 76.9688 87.7578C76.9883 85.5312 74.0195 84.2031 69 84.2031C63.9414 84.2031 60.9336 85.5312 60.9531 87.7578ZM76.5781 80.4531V59.3203H80.2891V68.1094H85.3672V71.2344H80.2891V80.4531H76.5781ZM98.8438 60.9219C104.117 60.9023 107.926 63.8516 107.945 68.1875C107.926 72.4844 104.117 75.4531 98.8438 75.4141C93.5898 75.4531 89.8008 72.4844 89.8203 68.1875C89.8008 63.8516 93.5898 60.9023 98.8438 60.9219ZM87.3203 78.1484C93.7852 78.1484 102.711 78.0117 110.367 76.8594L110.641 79.6328C107.438 80.2383 104.137 80.6094 100.914 80.8242V93.2266H97.2031V81.0391C93.8047 81.1953 90.6016 81.2148 87.8281 81.2344L87.3203 78.1484ZM93.4141 68.1875C93.375 70.7266 95.6602 72.4062 98.8438 72.3672C102.105 72.4062 104.391 70.7266 104.391 68.1875C104.391 65.6289 102.105 63.9102 98.8438 63.9297C95.6602 63.9102 93.375 65.6289 93.4141 68.1875ZM112.789 94.3203V59.3594H116.461V94.3203H112.789Z" fill="white"/>
<path d="M136.75 95V90.9375L149.496 78.0898C153.533 73.9004 155.539 71.5645 155.539 68.3398C155.539 64.709 152.594 62.3984 148.734 62.3984C144.646 62.3984 142.057 64.9883 142.031 68.8984H136.75C136.699 62.1699 141.828 57.7266 148.836 57.7266C155.92 57.7266 160.82 62.2207 160.871 68.1875C160.82 72.3008 158.891 75.5762 151.984 82.3555L144.52 89.9219V90.2266H161.48V95H136.75ZM180.473 95.5078C171.967 95.5078 166.965 88.6523 166.965 76.6172C166.965 64.6582 172.018 57.7266 180.473 57.7266C188.902 57.7266 193.955 64.6582 193.98 76.6172C193.955 88.6523 188.979 95.5078 180.473 95.5078ZM172.551 76.6172C172.525 85.7832 175.496 90.6836 180.473 90.6836C185.424 90.6836 188.395 85.7832 188.395 76.6172C188.395 67.4766 185.398 62.4746 180.473 62.4492C175.521 62.4746 172.551 67.4766 172.551 76.6172ZM208.199 75.7031C203.172 75.7539 200.43 72.0215 200.48 66.5625C200.43 61.1797 203.299 57.4473 208.199 57.4727C213.252 57.4473 215.893 61.1797 215.918 66.5625C215.893 72.0469 213.15 75.7539 208.199 75.7031ZM204.645 95L229.883 58.2344H234.504L209.266 95H204.645ZM204.645 66.5625C204.67 69.9395 205.838 72.123 208.199 72.1484C210.586 72.123 211.703 69.9395 211.703 66.5625C211.703 63.2617 210.662 61.002 208.199 61.0273C205.838 61.0781 204.67 63.2871 204.645 66.5625ZM223.688 86.6211C223.662 81.1875 226.506 77.4551 231.406 77.4805C236.434 77.4551 239.1 81.1875 239.125 86.6211C239.1 92.0547 236.357 95.7617 231.406 95.7617C226.404 95.7617 223.662 92.0293 223.688 86.6211ZM227.852 86.6211C227.877 89.9473 229.045 92.1562 231.406 92.1562C233.793 92.1562 234.91 89.9473 234.91 86.6211C234.91 83.2695 233.869 81.0352 231.406 81.0352C229.07 81.0859 227.877 83.2949 227.852 86.6211Z" fill="white"/>
</g>
<defs>
<clipPath id="clip0_2073_2356">
<rect width="295" height="154" rx="12" fill="white"/>
</clipPath>
</defs>
</svg>
