<svg width="295" height="250" viewBox="0 0 295 250" fill="none" xmlns="http://www.w3.org/2000/svg">
<g clip-path="url(#clip0_2073_2333)">
<rect width="295" height="250" rx="12" fill="#0088FF"/>
<rect opacity="0.2" x="78" y="-137" width="364" height="251" rx="12" fill="#006DCC"/>
<rect opacity="0.2" x="-89" y="154" width="166.86" height="217" rx="12" fill="#006DCC"/>
<rect opacity="0.2" x="249" y="-337" width="167" height="717" rx="12" fill="#006DCC"/>
<path d="M100.959 51.3711V52.8535C100.97 54.293 100.97 55.9688 100.54 58.1387H103.129V60.0723H95.416V63.1016H101.002V69.9121H98.6172V65.0137H87.1875V63.1016H93.0312V60.0723H85.3828V58.1387H98.1445C98.5312 56.1406 98.5742 54.626 98.5742 53.2832H87.5742V51.3711H100.959ZM121.068 50.4902V69.9121H118.77V60.0938H116.621V68.9238H114.387V50.8555H116.621V58.1387H118.77V50.4902H121.068ZM105.234 65.0781V52.7246H107.641V62.9727C109.316 62.9404 111.143 62.79 113.184 62.3926L113.42 64.4766C110.799 64.9385 108.575 65.0781 106.523 65.0781H105.234ZM144.207 51.3711V52.8535C144.218 54.293 144.218 55.9688 143.788 58.1387H146.377V60.0723H138.664V63.1016H144.25V69.9121H141.865V65.0137H130.436V63.1016H136.279V60.0723H128.631V58.1387H141.393C141.779 56.1406 141.822 54.626 141.822 53.2832H130.822V51.3711H144.207ZM164.359 50.4902V69.9121H162.082V50.4902H164.359ZM147.301 64.3906C150.104 62.6826 151.34 59.1807 151.34 55.7969V54.5078H147.967V52.5742H156.775V54.5078H153.639V55.7969C153.639 59.0732 154.81 62.3604 157.592 63.9609L156.174 65.7227C154.38 64.6592 153.188 62.8115 152.511 60.5986C151.823 62.9941 150.588 65.0352 148.762 66.1738L147.301 64.3906ZM155.357 59.1914V57.2578H158.15V50.8555H160.406V68.9668H158.15V59.1914H155.357ZM178.195 52.3594V54.25H166.68V52.3594H171.256V50.4043H173.641V52.3594H178.195ZM167.668 58.5469C167.668 56.4199 169.634 55.002 172.438 55.002C175.241 55.002 177.175 56.4199 177.186 58.5469C177.175 60.6738 175.241 62.0918 172.438 62.0918C169.634 62.0918 167.668 60.6738 167.668 58.5469ZM169.043 65.4648V63.5527H181.977V69.9121H179.592V65.4648H169.043ZM169.988 58.5469C169.978 59.6426 170.966 60.2549 172.438 60.2441C173.909 60.2549 174.908 59.6426 174.908 58.5469C174.908 57.4512 173.909 56.8066 172.438 56.8066C170.966 56.8066 169.978 57.4512 169.988 58.5469ZM179.592 62.6504V50.4902H181.977V55.6465H184.684V57.6016H181.977V62.6504H179.592ZM201.592 52.2734V54.25C201.592 56.667 201.592 59.2666 200.883 63.0801L198.541 62.8438C199.207 59.2451 199.207 56.6025 199.207 54.25V54.1855H187.455V52.2734H201.592ZM185.672 67.3984V65.4434H189.646V59.2559H192.031V65.4434H194.502V59.2559H196.844V65.4434H203.375V67.3984H185.672ZM113.678 81.4902V91.9102H111.271V81.4902H113.678ZM97.8438 86.9043C97.8438 84.208 100.078 82.3389 103.086 82.3496C106.083 82.3389 108.317 84.208 108.307 86.9043C108.317 89.5576 106.083 91.4268 103.086 91.416C100.078 91.4268 97.8438 89.5576 97.8438 86.9043ZM100.186 86.9043C100.175 88.4619 101.389 89.4502 103.086 89.4609C104.751 89.4502 105.965 88.4619 105.965 86.9043C105.965 85.3467 104.751 84.3369 103.086 84.3477C101.389 84.3369 100.175 85.3467 100.186 86.9043ZM100.83 100.676V92.8125H103.193V94.8105H111.293V92.8125H113.678V100.676H100.83ZM103.193 98.7422H111.293V96.6797H103.193V98.7422ZM128.051 83.3594V85.25H116.535V83.3594H121.111V81.4043H123.496V83.3594H128.051ZM117.523 89.5469C117.523 87.4199 119.489 86.002 122.293 86.002C125.097 86.002 127.03 87.4199 127.041 89.5469C127.03 91.6738 125.097 93.0918 122.293 93.0918C119.489 93.0918 117.523 91.6738 117.523 89.5469ZM118.898 96.4648V94.5527H131.832V100.912H129.447V96.4648H118.898ZM119.844 89.5469C119.833 90.6426 120.821 91.2549 122.293 91.2441C123.765 91.2549 124.764 90.6426 124.764 89.5469C124.764 88.4512 123.765 87.8066 122.293 87.8066C120.821 87.8066 119.833 88.4512 119.844 89.5469ZM129.447 93.6504V81.4902H131.832V86.6465H134.539V88.6016H131.832V93.6504H129.447ZM155.959 81.4902V89.0742H158.838V91.0723H155.959V100.869H153.574V81.4902H155.959ZM140.641 95.5625C145.367 93.1992 147.924 89.9121 148.396 85.4863H141.693V83.5098H150.824C150.813 89.2139 148.45 94.2305 141.994 97.4102L140.641 95.5625ZM175.467 86.5391V88.4727H162.061V81.834H164.445V86.5391H175.467ZM159.762 92.2754V90.3418H177.486V92.2754H159.762ZM161.824 97.2598C161.824 94.9717 164.37 93.6826 168.592 93.6719C172.781 93.6826 175.306 94.9717 175.316 97.2598C175.306 99.5371 172.781 100.826 168.592 100.826C164.37 100.826 161.824 99.5371 161.824 97.2598ZM164.252 97.2598C164.241 98.377 165.767 98.9893 168.592 99C171.374 98.9893 172.91 98.377 172.932 97.2598C172.91 96.1104 171.374 95.5518 168.592 95.541C165.767 95.5518 164.241 96.1104 164.252 97.2598ZM185.887 84.2832C185.876 86.9258 187.423 89.3428 190.463 90.2988L189.174 92.168C187.058 91.416 185.575 89.998 184.748 88.1611C183.889 90.2773 182.267 91.9424 179.914 92.7695L178.646 90.8359C181.858 89.7832 183.47 87.1943 183.48 84.3906V82.543H185.887V84.2832ZM181.869 97.1738C181.848 94.8105 184.372 93.4248 188.465 93.4355C192.579 93.4248 195.093 94.8105 195.104 97.1738C195.093 99.5371 192.579 100.891 188.465 100.891C184.372 100.891 181.848 99.5371 181.869 97.1738ZM184.232 97.1738C184.222 98.3555 185.769 99.0107 188.465 99.0215C191.183 99.0107 192.719 98.3555 192.719 97.1738C192.719 95.9492 191.183 95.2939 188.465 95.2832C185.769 95.2939 184.222 95.9492 184.232 97.1738ZM188.787 87.2051V85.25H192.654V81.4902H195.039V92.9199H192.654V87.2051H188.787Z" fill="#F4F4F5"/>
<g clip-path="url(#clip1_2073_2333)">
<path d="M78.5163 173.562V167.062L98.0788 136.75H108.204V166.875H114.141V173.562H108.204V182H100.454V173.562H78.5163ZM86.8288 166.875H100.579V146H100.079L86.8288 166.562V166.875ZM137.969 182.625C127.062 182.625 120.562 174.188 120.594 159.375C120.562 144.625 127.125 136.125 137.969 136.125C148.812 136.125 155.344 144.625 155.344 159.375C155.344 174.219 148.844 182.625 137.969 182.625ZM128.781 159.375C128.781 170.25 132.281 175.781 137.969 175.812C143.625 175.781 147.156 170.25 147.156 159.375C147.125 148.594 143.625 142.906 137.969 142.875C132.312 142.906 128.812 148.594 128.781 159.375ZM173.921 158.812C167.484 158.844 163.952 154.062 163.984 147.125C163.952 140.25 167.64 135.5 173.921 135.5C180.452 135.5 183.89 140.25 183.921 147.125C183.89 154.125 180.327 158.844 173.921 158.812ZM169.734 147.125C169.765 151.188 171.171 153.812 173.921 153.812C176.765 153.812 178.109 151.188 178.109 147.125C178.109 143.188 176.859 140.469 173.921 140.5C171.171 140.5 169.765 143.219 169.734 147.125ZM169.796 182L200.921 136.75H207.234L176.109 182H169.796ZM193.546 171.562C193.515 164.656 197.202 159.875 203.484 159.875C209.984 159.875 213.452 164.656 213.484 171.562C213.452 178.5 209.89 183.219 203.484 183.188C197.046 183.219 193.515 178.438 193.546 171.562ZM199.296 171.562C199.327 175.562 200.734 178.219 203.484 178.188C206.327 178.219 207.671 175.562 207.671 171.562C207.671 167.562 206.421 164.844 203.484 164.875C200.734 164.906 199.327 167.594 199.296 171.562Z" fill="white"/>
</g>
</g>
<defs>
<clipPath id="clip0_2073_2333">
<rect width="295" height="250" rx="12" fill="white"/>
</clipPath>
<clipPath id="clip1_2073_2333">
<rect width="218" height="64" fill="white" transform="translate(38 127)"/>
</clipPath>
</defs>
</svg>
