<svg width="20" height="21" viewBox="0 0 20 21" fill="none" xmlns="http://www.w3.org/2000/svg">
<g opacity="0.6">
<path d="M10 18.8334C14.6024 18.8334 18.3334 15.1025 18.3334 10.5001C18.3334 5.89771 14.6024 2.16675 10 2.16675C5.39765 2.16675 1.66669 5.89771 1.66669 10.5001C1.66669 15.1025 5.39765 18.8334 10 18.8334Z" stroke="#94A3B8" stroke-width="1.5" stroke-linecap="round" stroke-linejoin="round"/>
<path d="M7.57501 7.99999C7.77093 7.44304 8.15764 6.97341 8.66664 6.67426C9.17564 6.37512 9.77409 6.26577 10.356 6.36558C10.9379 6.46539 11.4657 6.76792 11.8459 7.21959C12.2261 7.67126 12.4342 8.24292 12.4333 8.83332C12.4333 10.5 9.93335 11.3333 9.93335 11.3333" stroke="#94A3B8" stroke-width="1.5" stroke-linecap="round" stroke-linejoin="round"/>
<path d="M10 14.6667H10.0083" stroke="#94A3B8" stroke-width="1.5" stroke-linecap="round" stroke-linejoin="round"/>
</g>
</svg>
