<svg width="40" height="40" viewBox="0 0 40 40" fill="none" xmlns="http://www.w3.org/2000/svg">
<path d="M38.9002 21.6072H25.0371C24.4313 21.6072 23.9374 22.101 23.9374 22.7068C23.9374 23.0153 24.0685 23.2933 24.273 23.4938L34.0346 33.2554C34.2352 33.4715 34.5248 33.6067 34.8413 33.6067C35.2231 33.6067 35.5587 33.4137 35.7555 33.1205C38.1555 30.3347 39.6989 26.7965 39.9768 22.9035C39.9922 22.8379 39.9999 22.7723 39.9999 22.7067C40 22.1011 39.5098 21.6072 38.9002 21.6072Z" fill="#D4D4D8"/>
<path d="M20.8507 1.67847C20.2448 1.68217 19.7549 2.17234 19.7549 2.77807V18.1846C19.7549 18.7943 20.2448 19.2881 20.8507 19.2881H36.2611C36.867 19.2881 37.3607 18.7943 37.3607 18.1846C36.8166 9.31819 29.721 2.22259 20.8507 1.67847Z" fill="#D4D4D8"/>
<path d="M29.3199 32.3565L17.9531 20.9897C17.7603 20.7929 17.6446 20.519 17.6446 20.2219L17.6405 4.16707C17.6405 3.56133 17.1506 3.07129 16.5447 3.07129C7.31166 3.63467 0 11.305 0 20.6772C0 30.4196 7.89826 38.3216 17.6405 38.3216C22.0854 38.3216 26.1444 36.678 29.2465 33.9654C29.4858 33.7646 29.6363 33.4639 29.6363 33.1281C29.6363 32.831 29.5166 32.557 29.3199 32.3565Z" fill="#D4D4D8"/>
</svg>
